<?xml version="1.0" encoding="utf-8"?>
<!-- Generator: Adobe Illustrator 16.0.0, SVG Export Plug-In . SVG Version: 6.00 Build 0)  -->
<!DOCTYPE svg PUBLIC "-//W3C//DTD SVG 1.1//EN" "http://www.w3.org/Graphics/SVG/1.1/DTD/svg11.dtd">
<svg version="1.1" id="Ebene_1" xmlns="http://www.w3.org/2000/svg" xmlns:xlink="http://www.w3.org/1999/xlink" x="0px" y="0px"
	 width="50px" height="50px" viewBox="0 0 50 50" enable-background="new 0 0 50 50" xml:space="preserve">
<path fill="#E0DBD1" d="M42.473,25.047c0,9.595-7.877,17.475-17.473,17.475c-9.642,0-17.523-7.88-17.523-17.475
	c0-9.642,7.881-17.521,17.523-17.521C34.596,7.525,42.473,15.405,42.473,25.047 M0.624,25.047c0,13.461,10.867,24.329,24.376,24.329
	c12.922,0,23.543-10.085,24.277-22.86l0.098-0.391V2.191c0-0.835-0.688-1.518-1.566-1.518H26.223c-0.441,0-0.83-0.049-1.223-0.049
	C11.491,0.625,0.624,11.539,0.624,25.047"/>
</svg>
