<?xml version="1.0" encoding="utf-8"?>
<!-- Generator: Adobe Illustrator 14.0.0, SVG Export Plug-In . SVG Version: 6.00 Build 43363)  -->
<!DOCTYPE svg PUBLIC "-//W3C//DTD SVG 1.1//EN" "http://www.w3.org/Graphics/SVG/1.1/DTD/svg11.dtd">
<svg version="1.1" id="Ebene_1" xmlns="http://www.w3.org/2000/svg" xmlns:xlink="http://www.w3.org/1999/xlink" x="0px" y="0px"
	 width="291.234px" height="80.896px" viewBox="0 0 291.234 80.896" enable-background="new 0 0 291.234 80.896"
	 xml:space="preserve">
<path fill="#A6A6A6" d="M116.523,27.269V80.3h-7.394V27.269H96.041v-6.461h33.569v6.461H116.523z M156.188,52.68V80.3h-7.648V52.68
	l-15.212-31.872h8.156l11.22,24.052l11.219-24.052h7.732L156.188,52.68z M194.601,57.863h-7.139V80.3h-7.395V20.808
	c0,0,7.31-0.594,14.362-0.594c12.919,0,16.66,7.988,16.66,18.442C211.091,51.575,206.67,57.863,194.601,57.863 M195.451,26.333
	c-4.677,0-7.989,0.509-7.989,0.509v24.817h7.989c4.759,0,8.073-3.146,8.073-12.409C203.525,30.75,201.485,26.333,195.451,26.333
	 M237.779,80.896c-14.022,0-17.765-10.198-17.765-31.021c0-19.976,3.741-29.663,17.765-29.663c14.024,0,17.763,9.688,17.763,29.663
	C255.541,70.698,251.803,80.896,237.779,80.896 M237.779,26.417c-7.646,0-10.198,5.187-10.198,23.883
	c0,18.273,2.552,24.393,10.198,24.393c7.648,0,10.199-6.118,10.199-24.393C247.979,31.604,245.428,26.417,237.779,26.417
	 M276.873,80.896c-4.164,0-10.369-1.273-11.134-1.447v-6.201c2.04,0.424,7.308,1.303,11.05,1.303c4.333,0,7.138-3.685,7.138-10.227
	c0-7.734-1.272-11.814-7.308-11.814h-6.971v-6.203h6.119c6.886,0,7.225-7.055,7.225-10.454c0-6.716-2.125-9.435-6.373-9.435
	c-3.74,0-7.991,0.935-10.455,1.444v-6.202c0.936-0.171,5.951-1.445,10.284-1.445c8.755,0,13.769,3.739,13.769,16.404
	c0,5.778-2.041,10.877-6.545,12.492c5.184,0.34,7.562,6.033,7.562,14.363C291.235,76.137,286.308,80.896,276.873,80.896"/>
<path fill="#A6A6A6" d="M60.418,55.751c-1.201,0.354-2.158,0.476-3.41,0.476c-10.272,0-25.36-35.896-25.36-47.843
	c0-4.401,1.045-5.868,2.515-7.125C21.588,2.725,6.498,7.336,1.676,13.205C0.629,14.672,0,16.978,0,19.911
	c0,18.653,19.91,60.986,33.953,60.986C40.449,80.897,51.406,70.21,60.418,55.751"/>
<path fill="#A6A6A6" d="M53.861,0c12.994,0,25.99,2.096,25.99,9.431c0,14.881-9.431,32.905-14.252,32.905
	c-8.592,0-19.281-23.892-19.281-35.838C46.318,1.049,48.415,0,53.861,0"/>
</svg>
