<?xml version="1.0" encoding="utf-8"?>
<!-- Generator: Adobe Illustrator 14.0.0, SVG Export Plug-In . SVG Version: 6.00 Build 43363)  -->
<!DOCTYPE svg PUBLIC "-//W3C//DTD SVG 1.1//EN" "http://www.w3.org/Graphics/SVG/1.1/DTD/svg11.dtd">
<svg version="1.1" id="Ebene_1" xmlns="http://www.w3.org/2000/svg" xmlns:xlink="http://www.w3.org/1999/xlink" x="0px" y="0px"
	 width="291.235px" height="80.897px" viewBox="0 0 291.235 80.897" enable-background="new 0 0 291.235 80.897"
	 xml:space="preserve">
<path fill="#FFFFFF" d="M116.523,27.269V80.3h-7.394V27.269H96.041v-6.461h33.57v6.461H116.523z M156.188,52.68V80.3h-7.649V52.68
	l-15.212-31.872h8.157l11.219,24.052l11.219-24.052h7.733L156.188,52.68z M194.601,57.863h-7.139V80.3h-7.394V20.808
	c0,0,7.309-0.594,14.362-0.594c12.919,0,16.66,7.988,16.66,18.442C211.091,51.575,206.67,57.863,194.601,57.863 M195.451,26.333
	c-4.676,0-7.989,0.509-7.989,0.509v24.817h7.989c4.759,0,8.074-3.146,8.074-12.409C203.525,30.75,201.485,26.333,195.451,26.333
	 M237.779,80.896c-14.023,0-17.765-10.199-17.765-31.021c0-19.975,3.741-29.663,17.765-29.663s17.762,9.688,17.762,29.663
	C255.541,70.697,251.803,80.896,237.779,80.896 M237.779,26.417c-7.647,0-10.199,5.187-10.199,23.883
	c0,18.273,2.552,24.393,10.199,24.393c7.648,0,10.199-6.119,10.199-24.393C247.979,31.604,245.428,26.417,237.779,26.417
	 M276.873,80.896c-4.164,0-10.369-1.274-11.134-1.448v-6.201c2.041,0.424,7.308,1.303,11.05,1.303c4.333,0,7.138-3.685,7.138-10.227
	c0-7.734-1.272-11.814-7.308-11.814h-6.97v-6.203h6.119c6.886,0,7.224-7.055,7.224-10.454c0-6.716-2.125-9.435-6.373-9.435
	c-3.74,0-7.991,0.935-10.455,1.445v-6.203c0.936-0.171,5.951-1.445,10.284-1.445c8.755,0,13.769,3.739,13.769,16.404
	c0,5.779-2.041,10.877-6.545,12.493c5.184,0.339,7.563,6.033,7.563,14.363C291.235,76.137,286.308,80.896,276.873,80.896"/>
<path fill="#FFFFFF" d="M60.418,55.751c-1.201,0.354-2.158,0.476-3.41,0.476c-10.272,0-25.36-35.896-25.36-47.843
	c0-4.401,1.045-5.868,2.514-7.125C21.588,2.725,6.498,7.336,1.676,13.205C0.629,14.672,0,16.978,0,19.911
	c0,18.654,19.91,60.987,33.953,60.987C40.449,80.897,51.406,70.21,60.418,55.751"/>
<path fill="#FFFFFF" d="M53.861,0c12.994,0,25.99,2.096,25.99,9.431c0,14.881-9.431,32.905-14.252,32.905
	c-8.592,0-19.281-23.891-19.281-35.838C46.318,1.049,48.415,0,53.861,0"/>
</svg>
