<?xml version="1.0" encoding="utf-8"?>
<!-- Generator: Adobe Illustrator 14.0.0, SVG Export Plug-In . SVG Version: 6.00 Build 43363)  -->
<!DOCTYPE svg PUBLIC "-//W3C//DTD SVG 1.1//EN" "http://www.w3.org/Graphics/SVG/1.1/DTD/svg11.dtd">
<svg version="1.1" id="Ebene_1" xmlns="http://www.w3.org/2000/svg" xmlns:xlink="http://www.w3.org/1999/xlink" x="0px" y="0px"
	 width="201.938px" height="226.223px" viewBox="0 0 201.938 226.223" enable-background="new 0 0 201.938 226.223"
	 xml:space="preserve">
<path fill="#646466" d="M147.143,99.04c3.247-11.355,13.477-19.831,25.909-20.264c15.407-0.523,28.337,11.531,28.868,26.938
	c0.538,15.423-11.515,28.362-26.938,28.901c-12.672,0.441-23.674-7.64-27.471-19.099c-16.628,0.587-35.959,1.214-49.437,1.439
	c-74.271,0-5.517,40.463,33.363,60.632c4.721-4.278,10.928-6.98,17.764-7.222c15.438-0.539,28.369,11.532,28.916,26.955
	c0.532,15.4-11.53,28.339-26.938,28.885c-15.423,0.523-28.353-11.531-28.899-26.955c-0.033-1.335,0-2.652,0.16-3.948
	c-25.781-9.898-58.333-25.596-95.436-48.963c-8.186-5.196-14.828-10.262-19.251-15.763c-4.792-5.459-7.382-11.434-7.751-17.513
	c-0.048-6.08,2.107-12.239,6.481-17.997c4.069-5.823,10.325-11.338,18.158-17.088c29.721-21.768,56.644-37.915,79.32-49.43
	c-0.354-15.271,11.643-28.008,26.955-28.531c15.407-0.546,28.336,11.532,28.883,26.939c0.516,15.423-11.516,28.345-26.938,28.868
	c-8.574,0.322-16.389-3.297-21.713-9.215c-37.087,23.505-77.423,54.859-23.143,52.028L147.143,99.04z"/>
</svg>
