<?xml version="1.0" encoding="utf-8"?>
<!-- Generator: Adobe Illustrator 14.0.0, SVG Export Plug-In . SVG Version: 6.00 Build 43363)  -->
<!DOCTYPE svg PUBLIC "-//W3C//DTD SVG 1.1//EN" "http://www.w3.org/Graphics/SVG/1.1/DTD/svg11.dtd">
<svg xmlns="http://www.w3.org/2000/svg" xmlns:xlink="http://www.w3.org/1999/xlink" version="1.1" id="imgView" x="0px" y="0px" width="256" height="256" viewBox="0 0 68.087 68.087" style="display: block;" xml:space="preserve" class="detail convertSvgInline replaced-svg" data-id="21113" data-kw="fast forward button1" fill="#000000">
	<path d="M33.869,59.737c-0.35,0-0.7-0.157-0.93-0.463c-0.388-0.514-0.288-1.243,0.227-1.634l31.066-23.598L33.163,10.447   c-0.513-0.39-0.614-1.121-0.226-1.634c0.393-0.517,1.122-0.615,1.637-0.225l33.513,25.456L34.576,59.5   C34.364,59.659,34.114,59.737,33.869,59.737z M1.875,59.5l33.511-25.457L1.875,8.587C1.359,8.197,0.63,8.296,0.238,8.812   c-0.388,0.513-0.288,1.244,0.227,1.634l31.066,23.596L0.461,57.641c-0.513,0.391-0.613,1.12-0.226,1.634   c0.234,0.306,0.582,0.463,0.932,0.463C1.413,59.737,1.663,59.659,1.875,59.5z" style="" fill="#000000"></path>
</svg>